it's an ISO file

General
Complete name                    : D:\Torrents\Unstoppable (2010).iso
Format                           : MPEG-PS
File size                        : 3.46 GiB
Duration                         : 1h 34mn
Overall bit rate                 : 5 246 Kbps

Video
ID                               : 224 (0xE0)
Format                           : MPEG Video
Format version                   : Version 2
Format profile                   : Main@Main
Format settings, Matrix          : Default
Duration                         : 1h 34mn
Bit rate mode                    : Variable
Bit rate                         : 4 846 Kbps
Width                            : 720 pixels
Height                           : 576 pixels
Display aspect ratio             : 16:9
Frame rate                       : 25.000 fps
Standard                         : PAL
Colorimetry                      : 4:2:0
Scan type                        : Progressive
Scan order                       : Top Field First
Bits/(Pixel*Frame)               : 0.467
Stream size                      : 3.20 GiB (92%)

Audio
ID                               : 128 (0x80)
Format                           : AC-3
Format/Info                      : Audio Coding 3
Duration                         : 1h 34mn
Bit rate mode                    : Constant
Bit rate                         : 192 Kbps
Channel(s)                       : 2 channels
Channel positions                : L R
Sampling rate                    : 48.0 KHz
Stream size                      : 130 MiB (4%)



NO SUBS!!!



much fun with this cool movie!

the AvD Team